<?xml version="1.0" encoding="UTF-8"?>
        <mxfile host="codeviz.app" modified="2025-10-07T20:15:04.709Z" agent="CodeViz Exporter" version="14.6.5" type="device">
          <diagram id="codeviz-diagram" name="System Diagram">
            <mxGraphModel dx="1000" dy="1000" grid="1" gridSize="10" guides="1" tooltips="1" connect="1" arrows="1" fold="1" page="1" pageScale="1" pageWidth="1169" pageHeight="827" math="0" shadow="0">
              <root>
                <mxCell id="0"/>
                <mxCell id="1" parent="0"/>
                <mxCell id="web_app_boundary" value="" style="html=1;whiteSpace=wrap;container=1;fillColor=#dae8fc;strokeColor=#6c8ebf;dashed=1;fillOpacity=20;strokeWidth=2;containerType=none;recursiveResize=0;movable=1;resizable=1;autosize=0;dropTarget=0" vertex="1" parent="cotizador_app_boundary">
                  <mxGeometry x="43.58333333333334" y="-39" width="583" height="276" as="geometry"/>
                </mxCell>
                <mxCell id="web_app_boundary_label" value="Web Application" style="edgeLabel;html=1;align=center;verticalAlign=middle;resizable=0;labelBackgroundColor=white;spacing=5" vertex="1" parent="cotizador_app_boundary">
                  <mxGeometry x="51.58333333333334" y="-31" width="507" height="24" as="geometry"/>
                </mxCell>
<mxCell id="api_server_boundary" value="" style="html=1;whiteSpace=wrap;container=1;fillColor=#dae8fc;strokeColor=#6c8ebf;dashed=1;fillOpacity=20;strokeWidth=2;containerType=none;recursiveResize=0;movable=1;resizable=1;autosize=0;dropTarget=0" vertex="1" parent="cotizador_app_boundary">
                  <mxGeometry x="83.83333333333334" y="217" width="649" height="276" as="geometry"/>
                </mxCell>
                <mxCell id="api_server_boundary_label" value="API Server" style="edgeLabel;html=1;align=center;verticalAlign=middle;resizable=0;labelBackgroundColor=white;spacing=5" vertex="1" parent="cotizador_app_boundary">
                  <mxGeometry x="91.83333333333334" y="225" width="573" height="24" as="geometry"/>
                </mxCell>
<mxCell id="application_db_boundary" value="" style="html=1;whiteSpace=wrap;container=1;fillColor=#dae8fc;strokeColor=#6c8ebf;dashed=1;fillOpacity=20;strokeWidth=2;containerType=none;recursiveResize=0;movable=1;resizable=1;autosize=0;dropTarget=0" vertex="1" parent="cotizador_app_boundary">
                  <mxGeometry x="40" y="478" width="347" height="208" as="geometry"/>
                </mxCell>
                <mxCell id="application_db_boundary_label" value="Application Database" style="edgeLabel;html=1;align=center;verticalAlign=middle;resizable=0;labelBackgroundColor=white;spacing=5" vertex="1" parent="cotizador_app_boundary">
                  <mxGeometry x="48" y="486" width="271" height="24" as="geometry"/>
                </mxCell>
<mxCell id="cotizador_app_boundary" value="" style="html=1;whiteSpace=wrap;container=1;fillColor=#dae8fc;strokeColor=#6c8ebf;dashed=1;fillOpacity=20;strokeWidth=2;containerType=none;recursiveResize=0;movable=1;resizable=1;autosize=0;dropTarget=0" vertex="1" parent="temp-wrapper-9fa8dab8-a502-4c12-8d22-b0b6858d3655">
                  <mxGeometry x="20" y="105" width="733" height="809" as="geometry"/>
                </mxCell>
                <mxCell id="cotizador_app_boundary_label" value="Cotizador Application" style="edgeLabel;html=1;align=center;verticalAlign=middle;resizable=0;labelBackgroundColor=white;spacing=5" vertex="1" parent="temp-wrapper-9fa8dab8-a502-4c12-8d22-b0b6858d3655">
                  <mxGeometry x="28" y="113" width="657" height="24" as="geometry"/>
                </mxCell>
                <mxCell id="temp-wrapper-9fa8dab8-a502-4c12-8d22-b0b6858d3655" value="" style="rounded=1;whiteSpace=wrap;html=1;fillColor=#f5f5f5" vertex="1" parent="1">
                      <mxGeometry x="0" y="0" width="120" height="60" as="geometry"/>
                    </mxCell>
<mxCell id="html_pages" value="HTML Pages" style="rounded=1;whiteSpace=wrap;html=1;fillColor=#f5f5f5" vertex="1" parent="web_app_boundary">
                      <mxGeometry x="124" y="196" width="86" height="40" as="geometry"/>
                    </mxCell>
<mxCell id="javascript_logic" value="JavaScript Logic" style="rounded=1;whiteSpace=wrap;html=1;fillColor=#f5f5f5" vertex="1" parent="web_app_boundary">
                      <mxGeometry x="204" y="106" width="106" height="40" as="geometry"/>
                    </mxCell>
<mxCell id="styling" value="Styling" style="rounded=1;whiteSpace=wrap;html=1;fillColor=#f5f5f5" vertex="1" parent="web_app_boundary">
                      <mxGeometry x="230" y="196" width="54" height="40" as="geometry"/>
                    </mxCell>
<mxCell id="pdf_actions_js" value="PDF Actions" style="rounded=1;whiteSpace=wrap;html=1;fillColor=#f5f5f5" vertex="1" parent="web_app_boundary">
                      <mxGeometry x="20" y="196" width="84" height="40" as="geometry"/>
                    </mxCell>
<mxCell id="email_actions_js" value="Email Actions" style="rounded=1;whiteSpace=wrap;html=1;fillColor=#f5f5f5" vertex="1" parent="web_app_boundary">
                      <mxGeometry x="304" y="196" width="92" height="40" as="geometry"/>
                    </mxCell>
<mxCell id="pdf_payload_js" value="PDF Payload" style="rounded=1;whiteSpace=wrap;html=1;fillColor=#f5f5f5" vertex="1" parent="web_app_boundary">
                      <mxGeometry x="416" y="196" width="87" height="40" as="geometry"/>
                    </mxCell>
<mxCell id="main_server" value="Main Server" style="rounded=1;whiteSpace=wrap;html=1;fillColor=#f5f5f5" vertex="1" parent="api_server_boundary">
                      <mxGeometry x="274" y="106" width="84" height="40" as="geometry"/>
                    </mxCell>
<mxCell id="email_service_comp" value="Email Service Integration" style="rounded=1;whiteSpace=wrap;html=1;fillColor=#f5f5f5" vertex="1" parent="api_server_boundary">
                      <mxGeometry x="151" y="196" width="157" height="40" as="geometry"/>
                    </mxCell>
<mxCell id="pdf_service_comp" value="PDF Service Integration" style="rounded=1;whiteSpace=wrap;html=1;fillColor=#f5f5f5" vertex="1" parent="api_server_boundary">
                      <mxGeometry x="328" y="196" width="149" height="40" as="geometry"/>
                    </mxCell>
<mxCell id="database_access" value="Database Access" style="rounded=1;whiteSpace=wrap;html=1;fillColor=#f5f5f5" vertex="1" parent="api_server_boundary">
                      <mxGeometry x="20" y="196" width="111" height="40" as="geometry"/>
                    </mxCell>
<mxCell id="validators" value="Validators" style="rounded=1;whiteSpace=wrap;html=1;fillColor=#f5f5f5" vertex="1" parent="api_server_boundary">
                      <mxGeometry x="497" y="196" width="72" height="40" as="geometry"/>
                    </mxCell>
<mxCell id="quote_data_table" value="Quote Data Table" style="rounded=1;whiteSpace=wrap;html=1;fillColor=#f5f5f5" vertex="1" parent="application_db_boundary">
                      <mxGeometry x="20" y="106" width="115" height="40" as="geometry"/>
                    </mxCell>
<mxCell id="client_data_table" value="Client Data Table" style="rounded=1;whiteSpace=wrap;html=1;fillColor=#f5f5f5" vertex="1" parent="application_db_boundary">
                      <mxGeometry x="155" y="106" width="112" height="40" as="geometry"/>
                    </mxCell>
                <mxCell id="edge-e-javascript_logic-html_pages" style="edgeStyle=orthogonalEdgeStyle;rounded=1;orthogonalLoop=1;jettySize=auto;html=1;strokeColor=#808080;strokeWidth=2;jumpStyle=arc;jumpSize=10;spacing=15;labelBackgroundColor=white;labelBorderColor=none" edge="1" parent="1" source="javascript_logic" target="html_pages">
                    <mxGeometry relative="1" as="geometry"/>
                  </mxCell>
                  <mxCell id="edge-e-javascript_logic-html_pages_label" value="Manipulates/Renders | DOM" style="edgeLabel;html=1;align=center;verticalAlign=middle;resizable=0;points=[];" vertex="1" connectable="0" parent="edge-e-javascript_logic-html_pages">
                    <mxGeometry x="-0.2" y="10" relative="1" as="geometry">
                      <mxPoint as="offset"/>
                    </mxGeometry>
                  </mxCell>
<mxCell id="edge-e-javascript_logic-styling" style="edgeStyle=orthogonalEdgeStyle;rounded=1;orthogonalLoop=1;jettySize=auto;html=1;strokeColor=#808080;strokeWidth=2;jumpStyle=arc;jumpSize=10;spacing=15;labelBackgroundColor=white;labelBorderColor=none" edge="1" parent="1" source="javascript_logic" target="styling">
                    <mxGeometry relative="1" as="geometry"/>
                  </mxCell>
                  <mxCell id="edge-e-javascript_logic-styling_label" value="Applies | CSS" style="edgeLabel;html=1;align=center;verticalAlign=middle;resizable=0;points=[];" vertex="1" connectable="0" parent="edge-e-javascript_logic-styling">
                    <mxGeometry x="-0.2" y="10" relative="1" as="geometry">
                      <mxPoint as="offset"/>
                    </mxGeometry>
                  </mxCell>
<mxCell id="edge-e-javascript_logic-pdf_actions_js" style="edgeStyle=orthogonalEdgeStyle;rounded=1;orthogonalLoop=1;jettySize=auto;html=1;strokeColor=#808080;strokeWidth=2;jumpStyle=arc;jumpSize=10;spacing=15;labelBackgroundColor=white;labelBorderColor=none" edge="1" parent="1" source="javascript_logic" target="pdf_actions_js">
                    <mxGeometry relative="1" as="geometry"/>
                  </mxCell>
                  <mxCell id="edge-e-javascript_logic-pdf_actions_js_label" value="Uses" style="edgeLabel;html=1;align=center;verticalAlign=middle;resizable=0;points=[];" vertex="1" connectable="0" parent="edge-e-javascript_logic-pdf_actions_js">
                    <mxGeometry x="-0.2" y="10" relative="1" as="geometry">
                      <mxPoint as="offset"/>
                    </mxGeometry>
                  </mxCell>
<mxCell id="edge-e-javascript_logic-email_actions_js" style="edgeStyle=orthogonalEdgeStyle;rounded=1;orthogonalLoop=1;jettySize=auto;html=1;strokeColor=#808080;strokeWidth=2;jumpStyle=arc;jumpSize=10;spacing=15;labelBackgroundColor=white;labelBorderColor=none" edge="1" parent="1" source="javascript_logic" target="email_actions_js">
                    <mxGeometry relative="1" as="geometry"/>
                  </mxCell>
                  <mxCell id="edge-e-javascript_logic-email_actions_js_label" value="Uses" style="edgeLabel;html=1;align=center;verticalAlign=middle;resizable=0;points=[];" vertex="1" connectable="0" parent="edge-e-javascript_logic-email_actions_js">
                    <mxGeometry x="-0.2" y="10" relative="1" as="geometry">
                      <mxPoint as="offset"/>
                    </mxGeometry>
                  </mxCell>
<mxCell id="edge-e-javascript_logic-pdf_payload_js" style="edgeStyle=orthogonalEdgeStyle;rounded=1;orthogonalLoop=1;jettySize=auto;html=1;strokeColor=#808080;strokeWidth=2;jumpStyle=arc;jumpSize=10;spacing=15;labelBackgroundColor=white;labelBorderColor=none" edge="1" parent="1" source="javascript_logic" target="pdf_payload_js">
                    <mxGeometry relative="1" as="geometry"/>
                  </mxCell>
                  <mxCell id="edge-e-javascript_logic-pdf_payload_js_label" value="Uses" style="edgeLabel;html=1;align=center;verticalAlign=middle;resizable=0;points=[];" vertex="1" connectable="0" parent="edge-e-javascript_logic-pdf_payload_js">
                    <mxGeometry x="-0.2" y="10" relative="1" as="geometry">
                      <mxPoint as="offset"/>
                    </mxGeometry>
                  </mxCell>
<mxCell id="edge-e-main_server-email_service_comp" style="edgeStyle=orthogonalEdgeStyle;rounded=1;orthogonalLoop=1;jettySize=auto;html=1;strokeColor=#808080;strokeWidth=2;jumpStyle=arc;jumpSize=10;spacing=15;labelBackgroundColor=white;labelBorderColor=none" edge="1" parent="1" source="main_server" target="email_service_comp">
                    <mxGeometry relative="1" as="geometry"/>
                  </mxCell>
                  <mxCell id="edge-e-main_server-email_service_comp_label" value="Uses" style="edgeLabel;html=1;align=center;verticalAlign=middle;resizable=0;points=[];" vertex="1" connectable="0" parent="edge-e-main_server-email_service_comp">
                    <mxGeometry x="-0.2" y="10" relative="1" as="geometry">
                      <mxPoint as="offset"/>
                    </mxGeometry>
                  </mxCell>
<mxCell id="edge-e-main_server-pdf_service_comp" style="edgeStyle=orthogonalEdgeStyle;rounded=1;orthogonalLoop=1;jettySize=auto;html=1;strokeColor=#808080;strokeWidth=2;jumpStyle=arc;jumpSize=10;spacing=15;labelBackgroundColor=white;labelBorderColor=none" edge="1" parent="1" source="main_server" target="pdf_service_comp">
                    <mxGeometry relative="1" as="geometry"/>
                  </mxCell>
                  <mxCell id="edge-e-main_server-pdf_service_comp_label" value="Uses" style="edgeLabel;html=1;align=center;verticalAlign=middle;resizable=0;points=[];" vertex="1" connectable="0" parent="edge-e-main_server-pdf_service_comp">
                    <mxGeometry x="-0.2" y="10" relative="1" as="geometry">
                      <mxPoint as="offset"/>
                    </mxGeometry>
                  </mxCell>
<mxCell id="edge-e-main_server-database_access" style="edgeStyle=orthogonalEdgeStyle;rounded=1;orthogonalLoop=1;jettySize=auto;html=1;strokeColor=#808080;strokeWidth=2;jumpStyle=arc;jumpSize=10;spacing=15;labelBackgroundColor=white;labelBorderColor=none" edge="1" parent="1" source="main_server" target="database_access">
                    <mxGeometry relative="1" as="geometry"/>
                  </mxCell>
                  <mxCell id="edge-e-main_server-database_access_label" value="Uses" style="edgeLabel;html=1;align=center;verticalAlign=middle;resizable=0;points=[];" vertex="1" connectable="0" parent="edge-e-main_server-database_access">
                    <mxGeometry x="-0.2" y="10" relative="1" as="geometry">
                      <mxPoint as="offset"/>
                    </mxGeometry>
                  </mxCell>
<mxCell id="edge-e-main_server-validators" style="edgeStyle=orthogonalEdgeStyle;rounded=1;orthogonalLoop=1;jettySize=auto;html=1;strokeColor=#808080;strokeWidth=2;jumpStyle=arc;jumpSize=10;spacing=15;labelBackgroundColor=white;labelBorderColor=none" edge="1" parent="1" source="main_server" target="validators">
                    <mxGeometry relative="1" as="geometry"/>
                  </mxCell>
                  <mxCell id="edge-e-main_server-validators_label" value="Uses" style="edgeLabel;html=1;align=center;verticalAlign=middle;resizable=0;points=[];" vertex="1" connectable="0" parent="edge-e-main_server-validators">
                    <mxGeometry x="-0.2" y="10" relative="1" as="geometry">
                      <mxPoint as="offset"/>
                    </mxGeometry>
                  </mxCell>
<mxCell id="edge-e-web_app_boundary-api_server_boundary" style="edgeStyle=orthogonalEdgeStyle;rounded=1;orthogonalLoop=1;jettySize=auto;html=1;strokeColor=#808080;strokeWidth=2;jumpStyle=arc;jumpSize=10;spacing=15;labelBackgroundColor=white;labelBorderColor=none" edge="1" parent="1" source="web_app_boundary" target="api_server_boundary">
                    <mxGeometry relative="1" as="geometry"/>
                  </mxCell>
                  <mxCell id="edge-e-web_app_boundary-api_server_boundary_label" value="Makes API calls to | JSON/HTTP" style="edgeLabel;html=1;align=center;verticalAlign=middle;resizable=0;points=[];" vertex="1" connectable="0" parent="edge-e-web_app_boundary-api_server_boundary">
                    <mxGeometry x="-0.2" y="10" relative="1" as="geometry">
                      <mxPoint as="offset"/>
                    </mxGeometry>
                  </mxCell>
<mxCell id="edge-e-api_server_boundary-application_db_boundary" style="edgeStyle=orthogonalEdgeStyle;rounded=1;orthogonalLoop=1;jettySize=auto;html=1;strokeColor=#808080;strokeWidth=2;jumpStyle=arc;jumpSize=10;spacing=15;labelBackgroundColor=white;labelBorderColor=none" edge="1" parent="1" source="api_server_boundary" target="application_db_boundary">
                    <mxGeometry relative="1" as="geometry"/>
                  </mxCell>
                  <mxCell id="edge-e-api_server_boundary-application_db_boundary_label" value="Reads from and writes to | SQL" style="edgeLabel;html=1;align=center;verticalAlign=middle;resizable=0;points=[];" vertex="1" connectable="0" parent="edge-e-api_server_boundary-application_db_boundary">
                    <mxGeometry x="-0.2" y="10" relative="1" as="geometry">
                      <mxPoint as="offset"/>
                    </mxGeometry>
                  </mxCell>
<mxCell id="edge-e-database_access-application_db_boundary" style="edgeStyle=orthogonalEdgeStyle;rounded=1;orthogonalLoop=1;jettySize=auto;html=1;strokeColor=#808080;strokeWidth=2;jumpStyle=arc;jumpSize=10;spacing=15;labelBackgroundColor=white;labelBorderColor=none" edge="1" parent="1" source="database_access" target="application_db_boundary">
                    <mxGeometry relative="1" as="geometry"/>
                  </mxCell>
                  <mxCell id="edge-e-database_access-application_db_boundary_label" value="Accesses | SQL" style="edgeLabel;html=1;align=center;verticalAlign=middle;resizable=0;points=[];" vertex="1" connectable="0" parent="edge-e-database_access-application_db_boundary">
                    <mxGeometry x="-0.2" y="10" relative="1" as="geometry">
                      <mxPoint as="offset"/>
                    </mxGeometry>
                  </mxCell>
              </root>
            </mxGraphModel>
          </diagram>
        </mxfile>